<svg xmlns="http://www.w3.org/2000/svg" xmlns:xlink="http://www.w3.org/1999/xlink"><defs><style>
    .sprite-symbol-usage {display: none;}
    .sprite-symbol-usage:target {display: inline;}
  </style><symbol viewBox="0 0 16 16" fill="currentcolor" id="arrow_prev"><path d="M5.292 1.636a1 1 0 0 0 0 1.414L10.242 8l-4.95 4.95a1 1 0 0 0 1.414 1.414l5.657-5.657a1 1 0 0 0 0-1.414L6.707 1.636a1 1 0 0 0-1.414 0Z" /></symbol><symbol viewBox="0 0 16 16" fill="none" id="facebook"><path stroke="#000" d="M.5.5h15v15H.5z" /><path d="M13.01.42v3.226h-2.85a.641.641 0 0 0-.634.645v1.936h3.168v3.227H9.526v6.452H6.358V9.454H3.824V6.227h2.534V4.291c0-2.032 1.52-3.71 3.484-3.872h3.168Z" fill="currentColor" /></symbol><symbol viewBox="0 0 16 16" fill="none" id="instagram"><g clip-path="url(#instagram_a)"><path d="M15.953 4.695c-.037-.849-.175-1.432-.371-1.937a3.897 3.897 0 0 0-.924-1.417 3.93 3.93 0 0 0-1.413-.92C12.737.225 12.157.087 11.308.05 10.453.01 10.182 0 8.014 0s-2.44.01-3.291.047C3.874.084 3.29.222 2.786.418a3.896 3.896 0 0 0-1.417.923c-.405.4-.72.883-.92 1.414-.196.508-.334 1.088-.371 1.937-.04.855-.05 1.126-.05 3.294s.01 2.44.047 3.291c.037.849.175 1.432.371 1.937.203.537.518 1.017.923 1.416.4.406.883.721 1.414.92.508.197 1.088.334 1.937.372.851.037 1.123.047 3.29.047 2.169 0 2.44-.01 3.292-.047.848-.038 1.432-.175 1.937-.371a4.085 4.085 0 0 0 2.337-2.337c.196-.508.333-1.088.37-1.937.038-.852.048-1.123.048-3.291s-.003-2.44-.04-3.291Zm-1.438 6.52c-.034.78-.165 1.2-.274 1.481a2.649 2.649 0 0 1-1.517 1.517c-.28.109-.704.24-1.481.274-.843.037-1.095.047-3.226.047-2.13 0-2.386-.01-3.225-.047-.78-.034-1.201-.165-1.482-.274a2.456 2.456 0 0 1-.917-.596 2.483 2.483 0 0 1-.596-.917c-.11-.281-.24-.705-.275-1.482-.037-.842-.046-1.095-.046-3.226 0-2.13.009-2.386.046-3.225.035-.78.166-1.201.275-1.482.128-.346.33-.661.599-.917.259-.265.57-.468.917-.596.28-.11.705-.24 1.482-.275.842-.037 1.095-.046 3.225-.046 2.134 0 2.387.009 3.226.046.78.035 1.2.166 1.482.275.346.128.66.33.917.596.265.259.468.57.596.917.109.28.24.705.274 1.482.037.842.047 1.095.047 3.225s-.01 2.38-.047 3.223Z" fill="currentColor" /><path d="M8.014 3.884a4.103 4.103 0 0 0 0 8.204 4.103 4.103 0 0 0 0-8.204Zm0 6.763a2.661 2.661 0 1 1 0-5.323 2.661 2.661 0 0 1 0 5.323ZM13.236 3.722a.958.958 0 1 1-1.915 0 .958.958 0 0 1 1.915 0Z" fill="#707683" /></g><defs></defs></symbol><clipPath id="instagram_a"><rect fill="#fff" /></clipPath><symbol viewBox="0 0 16 16" fill="currentColor" id="telegram"><path d="m6.297 9.791-.264 3.715c.378 0 .541-.162.738-.357l1.772-1.693 3.671 2.689c.673.375 1.148.177 1.33-.62l2.41-11.293c.214-.996-.36-1.385-1.016-1.14L.772 6.514c-.966.375-.952.914-.164 1.158L4.23 8.8l8.412-5.264c.396-.262.756-.117.46.145L6.297 9.79Z" /></symbol><symbol viewBox="0 0 16 16" fill="currentColor" id="youtube"><path d="M15.723 4.44c-.195-.85-.891-1.479-1.73-1.572-1.983-.222-3.992-.223-5.99-.222-2 0-4.008 0-5.992.222-.838.094-1.533.721-1.73 1.572C.004 5.652 0 6.975 0 8.222c0 1.248 0 2.57.279 3.782.195.851.891 1.479 1.729 1.573 1.984.221 3.992.222 5.991.221 2 .001 4.008 0 5.992-.221.837-.094 1.533-.722 1.73-1.573.278-1.211.279-2.534.279-3.782 0-1.247.002-2.57-.277-3.782Zm-9.788 6.266V5.414l5.087 2.654-5.087 2.638Z" /></symbol></defs><use id="arrow_prev-usage" xlink:href="#arrow_prev" class="sprite-symbol-usage" /><use id="facebook-usage" xlink:href="#facebook" class="sprite-symbol-usage" /><use id="instagram-usage" xlink:href="#instagram" class="sprite-symbol-usage" /><use id="telegram-usage" xlink:href="#telegram" class="sprite-symbol-usage" /><use id="youtube-usage" xlink:href="#youtube" class="sprite-symbol-usage" /></svg>